<svg xmlns="http://www.w3.org/2000/svg" width="205" height="25" fill="none" viewBox="0 0 205 25"><path fill="#FD3A69" d="M1.52189 23.2422C1.43517 23.1554 1.3593 23.0577 1.29426 22.9492C1.22922 22.819 1.17502 22.6562 1.13166 22.4609C0.828153 22.092 0.589677 21.6688 0.416244 21.1914C0.242809 20.714 0.123572 20.2257 0.0585343 19.7266C-0.00650382 19.2057 -0.0173435 18.6849 0.0260152 18.1641C0.0693738 17.6432 0.145252 17.1549 0.253648 16.6992C0.318687 16.4822 0.372885 16.2543 0.416244 16.0156C0.524639 15.6033 0.633039 15.2018 0.741434 14.8112C0.849829 14.3988 1.01242 14.0625 1.22922 13.8021C1.1425 13.5634 1.15334 13.303 1.26174 13.0208C1.37013 12.7387 1.47853 12.4783 1.58693 12.2396C1.63029 12.1745 1.6628 12.1202 1.68449 12.0768C1.70617 12.0117 1.72784 11.9574 1.74952 11.9141C2.00968 11.1545 2.25899 10.4275 2.49746 9.73307C2.75761 9.01692 3.00693 8.33333 3.2454 7.68229C3.67899 6.48869 4.09089 5.31682 4.48112 4.16666C4.89303 3.01649 5.26158 1.79036 5.58677 0.488276C5.76019 0.358068 5.91196 0.271262 6.04204 0.227859C6.08538 0.206158 6.13959 0.184457 6.20463 0.162755C6.26967 0.141054 6.34553 0.130203 6.43227 0.130203C6.88753 0.368918 7.41866 0.596781 8.0257 0.813797C8.65438 1.00911 9.18556 1.10677 9.61913 1.10677L10.172 1.59505C10.4538 1.92057 10.6923 2.26779 10.8874 2.63671C11.1042 2.98394 11.1692 3.43967 11.0825 4.0039C10.9524 4.19921 10.844 4.31857 10.7573 4.36197C10.6272 4.8611 10.4863 5.30598 10.3345 5.69661C10.1828 6.06552 10.0311 6.42359 9.87928 6.77083C9.70586 7.16145 9.54327 7.55208 9.3915 7.9427C9.23972 8.33333 9.10965 8.81078 9.00127 9.37499C8.87119 9.52692 8.78446 9.65713 8.74112 9.76562C8.71942 9.87411 8.6869 9.98265 8.64356 10.0911C8.60022 10.2213 8.546 10.3624 8.48096 10.5143C8.41593 10.6445 8.31837 10.7639 8.18829 10.8724C8.10156 11.5452 7.97148 12.0985 7.79806 12.5325C7.62465 12.9449 7.45118 13.3572 7.27776 13.7695C6.97427 14.5291 6.69242 15.2886 6.43227 16.0482C6.17211 16.786 6.02034 17.6324 5.977 18.5872C6.23715 18.5221 6.47561 18.4896 6.69242 18.4896C6.97427 18.4896 7.24524 18.533 7.50539 18.6198C8.28585 18.2292 9.13134 17.9905 10.0419 17.9036C10.9741 17.8168 11.8955 17.7626 12.806 17.7409C13.5648 17.7409 14.2694 17.7083 14.9197 17.6432C15.1365 17.7952 15.2774 17.8819 15.3425 17.9036C15.4075 17.9036 15.5159 17.9036 15.6677 17.9036C15.7327 17.9036 15.7977 17.9036 15.8628 17.9036C15.9278 17.9036 16.0146 17.9145 16.1229 17.9362C16.4264 18.24 16.7191 18.457 17.001 18.5872C17.2828 18.6957 17.5863 18.8043 17.9115 18.9128C18.1933 19.0212 18.4643 19.1406 18.7245 19.2708C19.0063 19.3793 19.2773 19.5312 19.5374 19.7266L19.8301 21.3867C20.0035 21.6254 20.0794 21.7882 20.0577 21.875C20.0577 22.0486 20.0144 22.2005 19.9277 22.3307L19.9927 22.7539C19.5808 22.8407 19.3098 22.9384 19.1797 23.0469C19.0497 23.1337 18.9088 23.253 18.757 23.4049C18.5185 23.4267 18.2909 23.4375 18.0741 23.4375C17.6405 23.4375 17.1961 23.5026 16.7408 23.6328C16.0904 23.3941 15.375 23.2747 14.5945 23.2747C14.291 23.2747 13.9767 23.2856 13.6515 23.3073C13.348 23.329 13.0445 23.3616 12.741 23.4049C12.4158 23.4483 12.0906 23.4918 11.7654 23.5352C11.4402 23.5569 11.115 23.5677 10.7898 23.5677C10.5297 23.6111 10.3454 23.6436 10.237 23.6654C10.1286 23.6871 10.0202 23.7196 9.9118 23.763C9.17469 24.0017 8.37259 24.2405 7.50539 24.4792C6.6599 24.7179 5.80358 24.8372 4.93639 24.8372C3.65731 24.8372 2.62754 24.5117 1.84708 23.8607C1.76036 23.6654 1.69532 23.5352 1.65197 23.47C1.60861 23.4049 1.56525 23.329 1.52189 23.2422Z"/><path fill="#FD3A69" d="M22.1715 17.8385C21.5211 17.4696 21.0225 16.9488 20.6756 16.276C20.3287 15.6033 20.1336 14.9631 20.0902 14.3555C20.1553 13.8346 20.2962 13.4332 20.513 13.151C20.7081 12.8472 20.9466 12.6085 21.2284 12.4349C21.5103 12.2396 21.8029 12.0985 22.1064 12.0117C22.4099 11.9032 22.7026 11.8164 22.9844 11.7513L23.4722 11.9141C23.5806 12.0226 23.689 12.1202 23.7974 12.207C23.9275 12.2939 24.0467 12.3806 24.1551 12.4674C24.3719 12.3806 24.502 12.2504 24.5453 12.0768C24.6104 11.9032 24.6754 11.7296 24.7405 11.556C24.8055 11.3173 24.8814 11.0785 24.9681 10.8398C25.0548 10.6011 25.1632 10.3624 25.2933 10.1237C25.2716 9.92839 25.2825 9.75479 25.3258 9.60286C25.3691 9.45094 25.4125 9.32073 25.4559 9.21224C25.3258 9.10375 25.2282 9.04948 25.1632 9.04948C25.1199 9.02776 25.0331 8.99521 24.9031 8.95182C24.838 8.95182 24.773 8.95182 24.7079 8.95182C24.6429 8.9301 24.567 8.90844 24.4803 8.88672C24.1551 8.64802 23.9383 8.45271 23.8299 8.30078C23.7432 8.12719 23.6456 7.95354 23.5373 7.77995C23.4289 7.60635 23.3313 7.45443 23.2446 7.32422C23.1579 7.19401 23.0603 7.07464 22.9519 6.96615L22.5617 6.70573L22.7568 6.3151C22.8001 6.27172 22.8218 6.21745 22.8218 6.15234C22.8218 6.06552 22.7785 5.9462 22.6918 5.79427C22.6267 5.51214 22.6159 5.30599 22.6592 5.17578L22.7243 4.78516C22.9411 4.50304 23.0603 4.34028 23.082 4.29687L23.4072 3.97135C23.9058 3.84115 24.4153 3.70009 24.9356 3.54818C25.4559 3.37457 25.9654 3.20095 26.464 3.02734C26.9626 2.85373 27.4721 2.68012 27.9924 2.50651C28.5127 2.3329 29.033 2.18099 29.5533 2.05078C29.7267 1.89887 29.911 1.81207 30.1061 1.79036C30.3229 1.74696 30.518 1.71441 30.6914 1.69271C30.8432 1.69271 30.9841 1.68186 31.1142 1.66016C31.2443 1.63845 31.3418 1.5842 31.4069 1.4974C31.7754 1.36719 32.1331 1.25868 32.48 1.17187C33.1304 0.998266 33.9867 0.792099 35.049 0.553385C36.1113 0.31467 37.3036 0.141059 38.6261 0.0325521L39.309 0C39.4391 0.0217014 39.5691 0.0325521 39.6992 0.0325521C39.8293 0.0108507 39.9594 0 40.0894 0C41.2168 0 41.9647 0.347222 42.3333 1.04167C42.5501 1.15017 42.7452 1.29123 42.9186 1.46484C43.092 1.61676 43.2546 1.76866 43.4064 1.92057C43.5148 2.02908 43.6123 2.12673 43.6991 2.21354C43.7858 2.27865 43.8617 2.3329 43.9267 2.3763L44.1868 2.63672C44.4253 3.15755 44.4687 3.66754 44.3169 4.16667C44.1868 4.42708 44.0459 4.57899 43.8942 4.6224C43.7424 4.6658 43.5907 4.7092 43.4389 4.7526L43.0162 4.98047C42.7343 4.95877 42.5176 4.94792 42.3658 4.94792C42.2357 4.94792 42.0839 4.94792 41.9105 4.94792C41.2601 4.94792 40.5014 4.99132 39.6342 5.07812C38.7887 5.14323 37.9215 5.25172 37.0327 5.40365C36.1438 5.53385 35.2766 5.70745 34.4311 5.92448C33.5856 6.11979 32.8485 6.33682 32.2198 6.57552C32.0464 6.70573 31.8188 6.8251 31.5369 6.93359C31.4719 6.95531 31.3743 7.00953 31.2443 7.09635C31.266 7.26995 31.266 7.44359 31.2443 7.61719C31.2226 7.76911 31.1901 7.92099 31.1467 8.07292C31.125 8.18141 31.1034 8.30078 31.0817 8.43099C31.0817 8.53948 31.0709 8.65885 31.0492 8.78906C30.5939 9.33161 30.3771 9.97177 30.3988 10.7096L30.2362 11.0352C30.1494 11.122 30.0736 11.2522 30.0085 11.4258C29.9652 11.5777 29.9652 11.7405 30.0085 11.9141L30.1386 12.3047C30.5722 12.2613 30.9949 12.2179 31.4069 12.1745C31.8404 12.1094 32.2957 12.0443 32.7727 11.9792C33.3797 11.8707 33.9867 11.7839 34.5937 11.7187C35.2224 11.6319 35.8728 11.5885 36.5449 11.5885H37.8131L37.5204 11.8815L37.8782 11.9141L37.683 12.4349C37.8348 12.5 37.9432 12.5543 38.0082 12.5977C38.095 12.6194 38.1708 12.6519 38.2359 12.6953L38.4635 13.0208C38.5719 13.0859 38.6694 13.1944 38.7562 13.3464C38.8429 13.4766 38.8971 13.661 38.9188 13.8997L38.8212 14.2253L37.2928 16.1784L37.0977 16.4388L36.7725 16.3411C36.3606 16.3194 35.9704 16.3629 35.6018 16.4714C35.4284 16.5147 35.2441 16.569 35.049 16.6341C34.8539 16.6775 34.6588 16.6992 34.4637 16.6992C33.9433 16.786 33.5098 16.862 33.1629 16.9271C32.816 16.9705 32.4692 17.0139 32.1223 17.0573C31.6453 17.1441 31.1792 17.2309 30.724 17.3177C30.2904 17.3828 29.8785 17.4913 29.4882 17.6432C29.2498 17.6649 29.1088 17.6758 29.0655 17.6758C29.0222 17.6541 28.9788 17.6432 28.9354 17.6432C28.7186 17.6432 28.5018 17.6758 28.285 17.7409C28.0682 17.806 27.8623 17.8711 27.6672 17.9362C27.5371 18.0447 27.4504 18.1641 27.407 18.2943C27.3637 18.4028 27.3203 18.5221 27.2769 18.6523C27.2336 18.8043 27.1686 18.9561 27.0818 19.1081C27.0168 19.2383 26.9301 19.3793 26.8217 19.5312L26.8542 20.1172C26.6591 20.1606 26.5615 20.1931 26.5615 20.2148C26.5615 20.2148 26.5507 20.2148 26.529 20.2148C26.529 20.3884 26.4965 20.5512 26.4315 20.7031C26.3881 20.8551 26.3447 20.9961 26.3014 21.1263C26.258 21.2131 26.2255 21.2891 26.2038 21.3542C26.1821 21.4193 26.1713 21.4844 26.1713 21.5495C26.3881 21.9401 26.4423 22.385 26.3339 22.8841C26.2472 23.2965 26.0846 23.6654 25.8461 23.9909C25.6077 24.2947 25.3258 24.5334 25.0006 24.707C24.6537 24.7504 24.3936 24.7396 24.2202 24.6745C24.0684 24.6094 23.9058 24.5443 23.7324 24.4792C23.624 24.4358 23.5156 24.4032 23.4072 24.3815C23.2988 24.3381 23.1904 24.3056 23.082 24.2839L22.6918 23.9583C22.6267 23.8281 22.5509 23.7087 22.4641 23.6003C22.3774 23.4701 22.2907 23.3398 22.204 23.2096C22.0956 23.0577 21.9872 22.9058 21.8788 22.7539C21.7704 22.602 21.6729 22.4284 21.5861 22.2331C21.4343 21.4735 21.4018 20.8442 21.4886 20.3451C21.5969 19.8242 21.7379 19.3142 21.9113 18.8151C21.9546 18.6415 21.998 18.4787 22.0414 18.3268C22.0847 18.1749 22.1281 18.0121 22.1715 17.8385Z"/><path fill="#F1F1F1" d="M60.5843 24.8792C59.8074 24.8792 59.1081 24.6792 58.4864 24.2792C57.887 23.8569 57.4099 23.1792 57.0545 22.2458L49.4289 1.14581H52.9254L59.6852 20.9458C59.796 21.2347 59.9183 21.4681 60.0515 21.6458C60.1847 21.8236 60.3621 21.9125 60.5843 21.9125C60.8283 21.9125 61.0171 21.8236 61.1503 21.6458C61.2835 21.4681 61.4058 21.2347 61.5166 20.9458L68.4096 1.14581H71.7729L64.1473 22.2458C63.8143 23.1569 63.3372 23.8236 62.7154 24.2458C62.116 24.6681 61.4058 24.8792 60.5843 24.8792Z"/><path fill="#F1F1F1" d="M82.8887 24.4792C81.0015 24.4792 79.3366 24.1348 77.8938 23.4458C76.4728 22.7348 75.3516 21.7458 74.53 20.4792C73.7308 19.1903 73.3312 17.6903 73.3312 15.9792C73.3312 14.2903 73.6756 12.7792 74.364 11.4458C75.0519 10.0903 76.0066 9.0236 77.2278 8.24584C78.4484 7.46808 79.8694 7.07918 81.4901 7.07918C83.2435 7.07918 84.6978 7.45694 85.8523 8.21251C87.0287 8.96808 87.9055 9.99027 88.483 11.2792C89.06 12.5458 89.3488 13.9681 89.3488 15.5458C89.3488 16.0792 89.3155 16.5681 89.2489 17.0125H76.5951C76.7059 18.0569 77.0498 18.9458 77.6268 19.6792C78.2044 20.3903 78.937 20.9347 79.8251 21.3125C80.7351 21.6681 81.7341 21.8458 82.8221 21.8458H87.2509V24.4792H82.8887ZM76.5613 14.8458H86.2514C86.2514 14.1125 86.1073 13.3458 85.8185 12.5458C85.5303 11.7458 85.0417 11.0681 84.3539 10.5125C83.6655 9.93475 82.7107 9.64584 81.4901 9.64584C80.4687 9.64584 79.5915 9.91251 78.8589 10.4458C78.1487 10.9569 77.5941 11.6125 77.1945 12.4125C76.8167 13.1903 76.606 14.0014 76.5613 14.8458Z"/><path fill="#F1F1F1" d="M93.1548 24.4792V12.3125C93.1548 10.8014 93.5767 9.6236 94.4202 8.77917C95.2859 7.91251 96.4738 7.47917 97.9837 7.47917H101.48V10.1125H98.5498C97.7949 10.1125 97.2173 10.3347 96.8177 10.7792C96.4181 11.2014 96.2183 11.7792 96.2183 12.5125V24.4792H93.1548Z"/><path fill="#F1F1F1" d="M104.311 24.4792V7.47917H107.409V24.4792H104.311ZM105.877 4.77916C105.299 4.77916 104.811 4.57916 104.412 4.17916C104.012 3.75694 103.812 3.26805 103.812 2.7125C103.812 2.15694 104.012 1.67916 104.412 1.27916C104.811 0.856938 105.299 0.645828 105.877 0.645828C106.431 0.645828 106.909 0.856938 107.309 1.27916C107.73 1.67916 107.941 2.15694 107.941 2.7125C107.941 3.26805 107.73 3.75694 107.309 4.17916C106.909 4.57916 106.431 4.77916 105.877 4.77916Z"/><path fill="#F1F1F1" d="M112.013 24.4792V21.8458H120.138C120.938 21.8458 121.559 21.6014 122.003 21.1125C122.469 20.6014 122.702 20.0236 122.702 19.3792C122.702 18.7792 122.491 18.2569 122.069 17.8125C121.67 17.3458 121.082 17.1125 120.304 17.1125H116.875C115.232 17.1125 113.911 16.7125 112.912 15.9125C111.935 15.0903 111.447 13.9014 111.447 12.3458C111.447 11.4792 111.658 10.6792 112.079 9.94584C112.501 9.21251 113.09 8.6236 113.844 8.17917C114.599 7.71251 115.465 7.47917 116.442 7.47917H124.267V10.1125H116.742C116.076 10.1125 115.532 10.3347 115.11 10.7792C114.71 11.2014 114.511 11.6903 114.511 12.2458C114.511 12.8014 114.71 13.2903 115.11 13.7125C115.532 14.1125 116.12 14.3125 116.875 14.3125H120.138C121.958 14.3125 123.346 14.7458 124.301 15.6125C125.277 16.4792 125.765 17.7014 125.765 19.2792C125.765 20.1903 125.544 21.0458 125.1 21.8458C124.656 22.6236 124.034 23.2569 123.235 23.7458C122.436 24.2347 121.525 24.4792 120.505 24.4792H112.013Z"/><path fill="#F1F1F1" d="M129.573 24.4792V21.8458H137.699C138.498 21.8458 139.119 21.6014 139.563 21.1125C140.03 20.6014 140.262 20.0236 140.262 19.3792C140.262 18.7792 140.051 18.2569 139.629 17.8125C139.23 17.3458 138.642 17.1125 137.865 17.1125H134.435C132.792 17.1125 131.472 16.7125 130.473 15.9125C129.495 15.0903 129.007 13.9014 129.007 12.3458C129.007 11.4792 129.218 10.6792 129.64 9.94584C130.062 9.21251 130.65 8.6236 131.404 8.17917C132.159 7.71251 133.025 7.47917 134.002 7.47917H141.827V10.1125H134.302C133.636 10.1125 133.092 10.3347 132.67 10.7792C132.271 11.2014 132.07 11.6903 132.07 12.2458C132.07 12.8014 132.271 13.2903 132.67 13.7125C133.092 14.1125 133.68 14.3125 134.435 14.3125H137.699C139.519 14.3125 140.906 14.7458 141.861 15.6125C142.838 16.4792 143.326 17.7014 143.326 19.2792C143.326 20.1903 143.104 21.0458 142.66 21.8458C142.216 22.6236 141.595 23.2569 140.795 23.7458C139.996 24.2347 139.086 24.4792 138.065 24.4792H129.573Z"/><path fill="#F1F1F1" d="M147.367 24.4792V7.47917H150.464V24.4792H147.367ZM148.932 4.77916C148.354 4.77916 147.866 4.57916 147.467 4.17916C147.067 3.75694 146.867 3.26805 146.867 2.7125C146.867 2.15694 147.067 1.67916 147.467 1.27916C147.866 0.856938 148.354 0.645828 148.932 0.645828C149.487 0.645828 149.964 0.856938 150.364 1.27916C150.785 1.67916 150.997 2.15694 150.997 2.7125C150.997 3.26805 150.785 3.75694 150.364 4.17916C149.964 4.57916 149.487 4.77916 148.932 4.77916Z"/><path fill="#F1F1F1" d="M155.302 24.4792V14.2458C155.302 12.9348 155.601 11.7458 156.201 10.6792C156.8 9.59027 157.666 8.7236 158.798 8.07918C159.93 7.41251 161.295 7.07918 162.894 7.07918C164.048 7.07918 165.191 7.33475 166.323 7.84584C167.478 8.33475 168.366 9.21251 168.988 10.4792H169.021C169.665 9.21251 170.564 8.33475 171.718 7.84584C172.872 7.33475 174.038 7.07918 175.214 7.07918C176.791 7.07918 178.145 7.41251 179.277 8.07918C180.409 8.7236 181.275 9.59027 181.874 10.6792C182.473 11.7458 182.773 12.9348 182.773 14.2458V24.4792H179.71V14.2458C179.71 13.4014 179.51 12.6348 179.111 11.9458C178.711 11.2569 178.167 10.7125 177.479 10.3125C176.813 9.91251 176.047 9.71251 175.181 9.71251C174.337 9.71251 173.561 9.9236 172.85 10.3458C172.14 10.7458 171.574 11.2903 171.152 11.9792C170.752 12.6681 170.553 13.4236 170.553 14.2458V24.4792H167.489V14.2458C167.489 13.4236 167.278 12.6681 166.856 11.9792C166.456 11.2903 165.902 10.7458 165.192 10.3458C164.503 9.9236 163.726 9.71251 162.861 9.71251C162.017 9.71251 161.251 9.91251 160.563 10.3125C159.897 10.7125 159.364 11.2569 158.964 11.9458C158.564 12.6348 158.365 13.4014 158.365 14.2458V24.4792H155.302Z"/><path fill="#F1F1F1" d="M195.617 24.8792C193.885 24.8792 192.343 24.4903 190.988 23.7125C189.656 22.9125 188.602 21.8458 187.825 20.5125C187.07 19.1569 186.693 17.6458 186.693 15.9792C186.693 14.3125 187.07 12.8125 187.825 11.4792C188.602 10.1236 189.656 9.05694 190.988 8.27918C192.343 7.47918 193.885 7.07918 195.617 7.07918C197.348 7.07918 198.88 7.47918 200.212 8.27918C201.567 9.05694 202.621 10.1236 203.376 11.4792C204.153 12.8125 204.541 14.3125 204.541 15.9792C204.541 17.6458 204.153 19.1569 203.376 20.5125C202.621 21.8458 201.567 22.9125 200.212 23.7125C198.88 24.4903 197.348 24.8792 195.617 24.8792ZM195.617 22.2458C196.794 22.2458 197.815 21.9681 198.68 21.4125C199.546 20.8569 200.224 20.1125 200.712 19.1792C201.2 18.2236 201.445 17.1569 201.445 15.9792C201.445 14.8014 201.2 13.7458 200.712 12.8125C200.224 11.8569 199.546 11.1014 198.68 10.5458C197.815 9.99027 196.794 9.71251 195.617 9.71251C194.463 9.71251 193.441 9.99027 192.553 10.5458C191.687 11.1014 191.011 11.8569 190.522 12.8125C190.034 13.7458 189.79 14.8014 189.79 15.9792C189.79 17.1569 190.034 18.2236 190.522 19.1792C191.011 20.1125 191.687 20.8569 192.553 21.4125C193.441 21.9681 194.463 22.2458 195.617 22.2458Z"/></svg>