<?xml version="1.0" standalone="no"?>
<!DOCTYPE svg PUBLIC "-//W3C//DTD SVG 20010904//EN"
 "http://www.w3.org/TR/2001/REC-SVG-20010904/DTD/svg10.dtd">
<svg version="1.0" xmlns="http://www.w3.org/2000/svg"
 width="245.000000pt" height="245.000000pt" viewBox="0 0 245.000000 245.000000"
 preserveAspectRatio="xMidYMid meet">
<metadata>
Created by potrace 1.11, written by Peter Selinger 2001-2013
</metadata>
<g transform="translate(0.000000,245.000000) scale(0.100000,-0.100000)"
fill="#000000" stroke="none">
<path d="M311 1896 c-6 -7 -22 -51 -36 -97 -13 -46 -60 -187 -104 -314 -121
-349 -134 -389 -156 -485 -30 -130 -14 -232 54 -348 51 -88 80 -105 192 -108
62 -2 96 3 187 30 110 33 229 50 332 48 218 -6 217 -6 253 17 44 27 46 38 27
123 l-15 67 -80 36 c-44 20 -82 40 -85 45 -3 5 -17 10 -30 12 -14 2 -29 6 -35
10 -11 6 -188 2 -273 -7 -30 -3 -70 -12 -89 -20 -20 -8 -57 -15 -84 -15 l-48
0 5 47 c5 46 45 174 71 226 7 15 11 27 7 27 -4 0 -2 6 4 13 5 6 15 32 21 57 7
25 16 54 20 65 23 54 33 82 52 138 11 34 29 80 39 102 10 22 22 54 26 70 4 17
13 39 20 50 34 52 -38 175 -101 175 -14 0 -52 11 -85 25 -69 29 -74 30 -89 11z"/>
<path d="M2025 1898 c-90 -14 -209 -40 -275 -60 -35 -11 -75 -22 -89 -25 -14
-2 -98 -29 -188 -59 -90 -30 -170 -54 -179 -54 -8 0 -29 -13 -44 -29 -26 -25
-29 -35 -28 -85 1 -31 5 -56 8 -56 4 0 23 -24 43 -53 25 -39 44 -56 68 -63 28
-8 33 -14 31 -34 -4 -29 -52 -160 -58 -160 -3 0 -22 10 -43 22 l-38 22 -59
-30 c-76 -37 -106 -85 -92 -146 12 -56 34 -97 76 -140 l35 -37 -21 -63 c-30
-93 -24 -154 23 -223 33 -47 46 -57 92 -72 50 -16 56 -16 81 -1 41 25 63 74
57 132 -3 32 1 60 12 85 9 20 17 41 18 46 1 6 11 31 23 57 18 41 25 48 59 53
68 11 87 14 158 29 39 8 93 17 120 20 28 3 61 8 75 11 71 14 97 19 121 19 25
1 59 34 107 103 26 36 21 56 -21 95 -16 15 -26 31 -22 37 3 6 1 11 -5 11 -6 0
-8 5 -5 10 9 15 -155 6 -285 -15 -84 -14 -140 -17 -141 -6 -1 6 -2 17 -4 24
-1 6 4 22 12 34 7 12 13 33 13 45 1 13 9 41 20 63 11 22 19 52 20 68 0 39 29
63 107 87 136 42 305 69 475 75 118 4 145 12 155 44 10 30 10 36 0 71 -9 28
-130 134 -172 150 -31 12 -160 11 -240 -2z"/>
</g>
</svg>
